<svg height="1024" width="1024" viewBox="0 0 57 57" role="img"><title>Charging machine QR code</title><path fill="#FFFFFF" d="M0,0 h57v57H0z" shape-rendering="crispEdges"></path><path fill="#000000" d="M4 4h7v1H4zM13 4h3v1H13zM18 4h1v1H18zM24 4h1v1H24zM28 4h1v1H28zM30 4h2v1H30zM34 4h3v1H34zM38 4h1v1H38zM40 4h1v1H40zM44 4h1v1H44zM46,4 h7v1H46zM4 5h1v1H4zM10 5h1v1H10zM13 5h2v1H13zM16 5h2v1H16zM19 5h2v1H19zM23 5h1v1H23zM26 5h1v1H26zM28 5h2v1H28zM31 5h1v1H31zM34 5h2v1H34zM37 5h4v1H37zM42 5h3v1H42zM46 5h1v1H46zM52,5 h1v1H52zM4 6h1v1H4zM6 6h3v1H6zM10 6h1v1H10zM12 6h6v1H12zM22 6h2v1H22zM25 6h1v1H25zM27 6h5v1H27zM36 6h1v1H36zM38 6h1v1H38zM41 6h1v1H41zM43 6h2v1H43zM46 6h1v1H46zM48 6h3v1H48zM52,6 h1v1H52zM4 7h1v1H4zM6 7h3v1H6zM10 7h1v1H10zM12 7h9v1H12zM22 7h1v1H22zM25 7h1v1H25zM29 7h2v1H29zM35 7h3v1H35zM39 7h3v1H39zM43 7h1v1H43zM46 7h1v1H46zM48 7h3v1H48zM52,7 h1v1H52zM4 8h1v1H4zM6 8h3v1H6zM10 8h1v1H10zM13 8h1v1H13zM15 8h4v1H15zM21 8h2v1H21zM24 8h7v1H24zM32 8h3v1H32zM41 8h1v1H41zM46 8h1v1H46zM48 8h3v1H48zM52,8 h1v1H52zM4 9h1v1H4zM10 9h1v1H10zM14 9h1v1H14zM17 9h4v1H17zM25 9h2v1H25zM30 9h1v1H30zM33 9h3v1H33zM42 9h1v1H42zM46 9h1v1H46zM52,9 h1v1H52zM4 10h7v1H4zM12 10h1v1H12zM14 10h1v1H14zM16 10h1v1H16zM18 10h1v1H18zM20 10h1v1H20zM22 10h1v1H22zM24 10h1v1H24zM26 10h1v1H26zM28 10h1v1H28zM30 10h1v1H30zM32 10h1v1H32zM34 10h1v1H34zM36 10h1v1H36zM38 10h1v1H38zM40 10h1v1H40zM42 10h1v1H42zM44 10h1v1H44zM46,10 h7v1H46zM13 11h2v1H13zM17 11h1v1H17zM19 11h1v1H19zM21 11h1v1H21zM23 11h2v1H23zM26 11h1v1H26zM30 11h2v1H30zM33 11h2v1H33zM39 11h2v1H39zM42 11h1v1H42zM7 12h2v1H7zM10 12h2v1H10zM14 12h1v1H14zM16 12h2v1H16zM19 12h3v1H19zM26 12h5v1H26zM32 12h2v1H32zM36 12h1v1H36zM40 12h4v1H40zM49 12h2v1H49zM5 13h1v1H5zM7 13h1v1H7zM9 13h1v1H9zM11 13h2v1H11zM14 13h1v1H14zM18 13h3v1H18zM22 13h1v1H22zM26 13h2v1H26zM29 13h2v1H29zM33 13h14v1H33zM49 13h3v1H49zM5 14h2v1H5zM8 14h3v1H8zM13 14h1v1H13zM15 14h5v1H15zM26 14h2v1H26zM30 14h3v1H30zM34 14h1v1H34zM36 14h2v1H36zM39 14h2v1H39zM43 14h1v1H43zM46 14h1v1H46zM48 14h1v1H48zM52,14 h1v1H52zM5 15h1v1H5zM9 15h1v1H9zM11 15h1v1H11zM14 15h1v1H14zM18 15h1v1H18zM20 15h1v1H20zM22 15h1v1H22zM24 15h2v1H24zM30 15h1v1H30zM32 15h1v1H32zM35 15h1v1H35zM37 15h5v1H37zM43 15h1v1H43zM46 15h5v1H46zM52,15 h1v1H52zM8 16h5v1H8zM14 16h1v1H14zM17 16h1v1H17zM19 16h2v1H19zM23 16h4v1H23zM28 16h1v1H28zM31 16h1v1H31zM35 16h1v1H35zM40 16h1v1H40zM42 16h2v1H42zM48 16h1v1H48zM8 17h1v1H8zM12 17h1v1H12zM15 17h1v1H15zM17 17h3v1H17zM21 17h3v1H21zM25 17h1v1H25zM28 17h5v1H28zM34 17h4v1H34zM39 17h1v1H39zM42 17h1v1H42zM45 17h5v1H45zM4 18h1v1H4zM6 18h1v1H6zM8 18h4v1H8zM14 18h1v1H14zM16 18h2v1H16zM22 18h1v1H22zM24 18h1v1H24zM26 18h2v1H26zM29 18h1v1H29zM32 18h2v1H32zM35 18h4v1H35zM40 18h1v1H40zM43 18h1v1H43zM46 18h2v1H46zM50 18h1v1H50zM52,18 h1v1H52zM4 19h2v1H4zM8 19h2v1H8zM11 19h4v1H11zM18 19h3v1H18zM22 19h1v1H22zM26 19h4v1H26zM31 19h2v1H31zM34 19h1v1H34zM37 19h1v1H37zM40 19h1v1H40zM42 19h1v1H42zM45 19h1v1H45zM47 19h1v1H47zM49 19h2v1H49zM52,19 h1v1H52zM4 20h2v1H4zM7 20h1v1H7zM9 20h3v1H9zM13 20h2v1H13zM16 20h1v1H16zM19 20h1v1H19zM21 20h3v1H21zM25 20h2v1H25zM28 20h4v1H28zM34 20h2v1H34zM37 20h2v1H37zM40 20h2v1H40zM43 20h3v1H43zM47 20h3v1H47zM7 21h1v1H7zM9 21h1v1H9zM11 21h2v1H11zM14 21h1v1H14zM20 21h5v1H20zM26 21h1v1H26zM28 21h3v1H28zM32 21h3v1H32zM37 21h1v1H37zM39 21h3v1H39zM43 21h2v1H43zM46 21h2v1H46zM51 21h1v1H51zM4 22h2v1H4zM7 22h1v1H7zM10 22h3v1H10zM15 22h1v1H15zM19 22h3v1H19zM23 22h1v1H23zM29 22h2v1H29zM35 22h1v1H35zM37 22h3v1H37zM42 22h2v1H42zM45 22h1v1H45zM49 22h2v1H49zM52,22 h1v1H52zM5 23h3v1H5zM9 23h1v1H9zM12 23h2v1H12zM15 23h1v1H15zM18 23h2v1H18zM23 23h3v1H23zM29 23h2v1H29zM32 23h3v1H32zM38 23h1v1H38zM43 23h1v1H43zM46 23h1v1H46zM49 23h1v1H49zM51 23h1v1H51zM7 24h1v1H7zM10 24h7v1H10zM18 24h1v1H18zM20 24h1v1H20zM24 24h4v1H24zM29 24h1v1H29zM33 24h3v1H33zM38 24h3v1H38zM42 24h1v1H42zM46 24h1v1H46zM51,24 h2v1H51zM4 25h2v1H4zM9 25h1v1H9zM12 25h1v1H12zM14 25h1v1H14zM17 25h1v1H17zM23 25h1v1H23zM25 25h1v1H25zM28 25h1v1H28zM31 25h1v1H31zM33 25h2v1H33zM37 25h2v1H37zM42 25h1v1H42zM44 25h3v1H44zM48 25h3v1H48zM4 26h3v1H4zM8 26h10v1H8zM19 26h3v1H19zM23 26h1v1H23zM26 26h5v1H26zM34 26h1v1H34zM36 26h5v1H36zM43 26h6v1H43zM52,26 h1v1H52zM4 27h5v1H4zM12 27h1v1H12zM17 27h2v1H17zM20 27h1v1H20zM22 27h5v1H22zM30 27h2v1H30zM33 27h1v1H33zM35 27h1v1H35zM38 27h2v1H38zM41 27h1v1H41zM44 27h1v1H44zM48 27h4v1H48zM5 28h1v1H5zM8 28h1v1H8zM10 28h1v1H10zM12 28h1v1H12zM14 28h3v1H14zM18 28h1v1H18zM20 28h1v1H20zM23 28h2v1H23zM26 28h1v1H26zM28 28h1v1H28zM30 28h1v1H30zM33 28h5v1H33zM40 28h5v1H40zM46 28h1v1H46zM48 28h2v1H48zM8 29h1v1H8zM12 29h1v1H12zM16 29h1v1H16zM19 29h1v1H19zM23 29h1v1H23zM26 29h1v1H26zM30 29h1v1H30zM33 29h1v1H33zM36 29h2v1H36zM41 29h4v1H41zM48 29h4v1H48zM5 30h2v1H5zM8 30h7v1H8zM17 30h2v1H17zM21 30h2v1H21zM26 30h5v1H26zM35 30h1v1H35zM37 30h1v1H37zM39 30h4v1H39zM44 30h6v1H44zM52,30 h1v1H52zM4 31h5v1H4zM12 31h1v1H12zM15 31h1v1H15zM17 31h5v1H17zM25 31h3v1H25zM29 31h1v1H29zM32 31h3v1H32zM36 31h3v1H36zM45 31h1v1H45zM47 31h4v1H47zM52,31 h1v1H52zM4 32h2v1H4zM8 32h3v1H8zM12 32h2v1H12zM17 32h2v1H17zM21 32h4v1H21zM28 32h5v1H28zM34 32h3v1H34zM40 32h1v1H40zM42 32h2v1H42zM46 32h1v1H46zM49 32h2v1H49zM52,32 h1v1H52zM5 33h2v1H5zM8 33h1v1H8zM12 33h1v1H12zM14 33h7v1H14zM23 33h2v1H23zM27 33h2v1H27zM31 33h2v1H31zM35 33h2v1H35zM38 33h1v1H38zM41 33h1v1H41zM47 33h1v1H47zM50 33h1v1H50zM52,33 h1v1H52zM7 34h1v1H7zM9 34h4v1H9zM14 34h6v1H14zM21 34h3v1H21zM26 34h5v1H26zM33 34h1v1H33zM37 34h1v1H37zM39 34h3v1H39zM43 34h2v1H43zM46 34h2v1H46zM52,34 h1v1H52zM7 35h1v1H7zM13 35h1v1H13zM15 35h1v1H15zM18 35h1v1H18zM22 35h3v1H22zM27 35h1v1H27zM29 35h2v1H29zM32 35h2v1H32zM35 35h4v1H35zM40 35h2v1H40zM43 35h2v1H43zM47 35h3v1H47zM52,35 h1v1H52zM4 36h1v1H4zM7 36h1v1H7zM10 36h1v1H10zM15 36h1v1H15zM17 36h2v1H17zM20 36h1v1H20zM23 36h1v1H23zM25 36h1v1H25zM27 36h2v1H27zM30 36h5v1H30zM36 36h1v1H36zM38 36h2v1H38zM42 36h2v1H42zM46 36h1v1H46zM48 36h1v1H48zM52,36 h1v1H52zM4 37h2v1H4zM7 37h1v1H7zM13 37h2v1H13zM17 37h4v1H17zM25 37h1v1H25zM27 37h2v1H27zM37 37h2v1H37zM41 37h3v1H41zM46 37h5v1H46zM5 38h1v1H5zM7 38h1v1H7zM10 38h5v1H10zM16 38h3v1H16zM22 38h1v1H22zM24 38h1v1H24zM26 38h1v1H26zM28 38h2v1H28zM31 38h1v1H31zM33 38h1v1H33zM35 38h1v1H35zM37 38h2v1H37zM42 38h1v1H42zM45 38h2v1H45zM50 38h1v1H50zM52,38 h1v1H52zM4 39h4v1H4zM11 39h1v1H11zM15 39h2v1H15zM19 39h3v1H19zM23 39h2v1H23zM28 39h1v1H28zM30 39h2v1H30zM34 39h2v1H34zM40 39h1v1H40zM42 39h2v1H42zM45 39h1v1H45zM50 39h1v1H50zM4 40h2v1H4zM9 40h2v1H9zM15 40h2v1H15zM18 40h1v1H18zM20 40h2v1H20zM23 40h3v1H23zM28 40h2v1H28zM31 40h1v1H31zM33 40h1v1H33zM36 40h3v1H36zM40 40h2v1H40zM43 40h1v1H43zM51,40 h2v1H51zM6 41h1v1H6zM8 41h2v1H8zM11 41h2v1H11zM14 41h2v1H14zM17 41h2v1H17zM20 41h1v1H20zM24 41h1v1H24zM26 41h1v1H26zM31 41h2v1H31zM34 41h1v1H34zM36 41h2v1H36zM39 41h1v1H39zM42 41h1v1H42zM44 41h2v1H44zM48 41h2v1H48zM5 42h1v1H5zM9 42h3v1H9zM13 42h3v1H13zM18 42h1v1H18zM27 42h1v1H27zM31 42h1v1H31zM38 42h1v1H38zM41 42h3v1H41zM45 42h2v1H45zM49 42h1v1H49zM51,42 h2v1H51zM5 43h3v1H5zM13 43h1v1H13zM16 43h3v1H16zM20 43h7v1H20zM30 43h4v1H30zM35 43h1v1H35zM38 43h1v1H38zM42 43h3v1H42zM48,43 h5v1H48zM4 44h3v1H4zM10 44h2v1H10zM13 44h1v1H13zM15 44h2v1H15zM19 44h3v1H19zM23 44h2v1H23zM26 44h5v1H26zM32 44h1v1H32zM35 44h2v1H35zM40 44h11v1H40zM52,44 h1v1H52zM12 45h2v1H12zM20 45h1v1H20zM22 45h1v1H22zM24 45h1v1H24zM26 45h1v1H26zM30 45h4v1H30zM35 45h2v1H35zM38 45h1v1H38zM43 45h2v1H43zM48 45h3v1H48zM4 46h7v1H4zM12 46h1v1H12zM14 46h1v1H14zM17 46h1v1H17zM19 46h2v1H19zM24 46h3v1H24zM28 46h1v1H28zM30 46h1v1H30zM33 46h3v1H33zM38 46h1v1H38zM40 46h3v1H40zM44 46h1v1H44zM46 46h1v1H46zM48 46h3v1H48zM52,46 h1v1H52zM4 47h1v1H4zM10 47h1v1H10zM14 47h2v1H14zM17 47h4v1H17zM22 47h5v1H22zM30 47h1v1H30zM32 47h2v1H32zM35 47h1v1H35zM37 47h3v1H37zM44 47h1v1H44zM48 47h2v1H48zM51,47 h2v1H51zM4 48h1v1H4zM6 48h3v1H6zM10 48h1v1H10zM12 48h4v1H12zM17 48h1v1H17zM20 48h1v1H20zM22 48h1v1H22zM26 48h5v1H26zM33 48h1v1H33zM37 48h1v1H37zM39 48h2v1H39zM42 48h7v1H42zM51 48h1v1H51zM4 49h1v1H4zM6 49h3v1H6zM10 49h1v1H10zM12 49h2v1H12zM16 49h2v1H16zM20 49h1v1H20zM22 49h1v1H22zM25 49h1v1H25zM28 49h1v1H28zM35 49h1v1H35zM38 49h5v1H38zM46 49h2v1H46zM50 49h1v1H50zM52,49 h1v1H52zM4 50h1v1H4zM6 50h3v1H6zM10 50h1v1H10zM13 50h4v1H13zM18 50h2v1H18zM22 50h1v1H22zM24 50h2v1H24zM34 50h2v1H34zM37 50h4v1H37zM46 50h5v1H46zM52,50 h1v1H52zM4 51h1v1H4zM10 51h1v1H10zM19 51h1v1H19zM22 51h4v1H22zM28 51h3v1H28zM32 51h1v1H32zM36 51h1v1H36zM38 51h1v1H38zM41 51h3v1H41zM46 51h2v1H46zM50,51 h3v1H50zM4 52h7v1H4zM13 52h4v1H13zM18 52h3v1H18zM23 52h4v1H23zM29 52h1v1H29zM31 52h1v1H31zM36 52h1v1H36zM40 52h2v1H40zM43 52h3v1H43zM47 52h3v1H47zM52,52 h1v1H52z" shape-rendering="crispEdges"></path></svg>
